<svg xmlns="http://www.w3.org/2000/svg" width="518" height="150" viewBox="0 0 518 150" xmlns:c2pa="http://c2pa.org/manifest"><metadata><c2pa:manifest>AAAWgmp1bWIAAAAeanVtZGMycGEAEQAQgAAAqgA4m3EDYzJwYQAAABZcanVtYgAAAEdqdW1kYzJtYQARABCAAACqADibcQN1cm46YzJwYTpiMjliM2EwNS0zYWQ4LTQxNDYtYjhjZi0wYzQ4OTI4OGRhNWYAAAADl2p1bWIAAAApanVtZGMyYXMAEQAQgAAAqgA4m3EDYzJwYS5hc3NlcnRpb25zAAAAALxqdW1iAAAARGp1bWRjYm9yABEAEIAAAKoAOJtxE2MycGEuaW5ncmVkaWVudC52MwAAAAAYYzJzaK8Q4Tkh53N94XpIfy8gTLIAAABwY2JvcqNpZGM6Zm9ybWF0bWltYWdlL3N2Zyt4bWxqaW5zdGFuY2VJRHgseG1wOmlpZDpmMjI5ZTg3OC00ZmQ2LTQzM2EtYmM3MC0zZDhkMWIyODU1OWZscmVsYXRpb25zaGlwaHBhcmVudE9mAAAB4mp1bWIAAABBanVtZGNib3IAEQAQgAAAqgA4m3ETYzJwYS5hY3Rpb25zLnYyAAAAABhjMnNoo4mEG6pl5M8eSvxF+V7SqQAAAZljYm9yomdhY3Rpb25zgqJmYWN0aW9ua2MycGEub3BlbmVkanBhcmFtZXRlcnOha2luZ3JlZGllbnRzgaJjdXJseC1zZWxmI2p1bWJmPWMycGEuYXNzZXJ0aW9ucy9jMnBhLmluZ3JlZGllbnQudjNkaGFzaFggDc0BpNQzIXHoTgCRaddIAXIMqXQNkK22hhPYyoQPAemkZmFjdGlvbngdY29tLmFudGhyb3BpYy5jbGF1ZGUucHJvdmlkZWRqcGFyYW1ldGVyc6F4H2NvbS5hbnRocm9waWMub3JpZ2luLWNvbmZpZGVuY2VndW5rbm93bmtkZXNjcmlwdGlvbnhmQ2xhdWRlIHByb3ZpZGVkIHRoaXMgZmlsZSBhdCB0aGUgcmVxdWVzdCBvZiBhIHVzZXIgYW5kIG1heSBoYXZlIGNyZWF0ZWQgb3IgbW9kaWZpZWQgdGhlIGZpbGUgY29udGVudHMubXNvZnR3YXJlQWdlbnShZG5hbWVmQ2xhdWRlcmFsbEFjdGlvbnNJbmNsdWRlZPUAAADIanVtYgAAAEBqdW1kY2JvcgARABCAAACqADibcRNjMnBhLmhhc2guZGF0YQAAAAAYYzJzaL7Oe8tTrwcTvweqfZ24XO8AAACAY2JvcqVjYWxnZnNoYTI1NmNwYWRNAAAAAAAAAAAAAAAAAGRoYXNoWCA50kpPowfiJGggUxkx4KvNeM14Iyzn2YXO9qw7w+duLWRuYW1lbmp1bWJmIG1hbmlmZXN0amV4Y2x1c2lvbnOBomVzdGFydBiWZmxlbmd0aBkeBAAAAj5qdW1iAAAAJ2p1bWRjMmNsABEAEIAAAKoAOJtxA2MycGEuY2xhaW0udjIAAAACD2Nib3KlY2FsZ2ZzaGEyNTZpc2lnbmF0dXJleE1zZWxmI2p1bWJmPS9jMnBhL3VybjpjMnBhOmIyOWIzYTA1LTNhZDgtNDE0Ni1iOGNmLTBjNDg5Mjg4ZGE1Zi9jMnBhLnNpZ25hdHVyZWppbnN0YW5jZUlEeCx4bXA6aWlkOjIzYWY5ZTc0LTBlOTItNDMwMy1hOWZiLWQ0YTVjMTg1ZTZiZnJjcmVhdGVkX2Fzc2VydGlvbnODomN1cmx4LXNlbGYjanVtYmY9YzJwYS5hc3NlcnRpb25zL2MycGEuaW5ncmVkaWVudC52M2RoYXNoWCANzQGk1DMhcehOAJFp10gBcgypdA2QrbaGE9jKhA8B6aJjdXJseCpzZWxmI2p1bWJmPWMycGEuYXNzZXJ0aW9ucy9jMnBhLmFjdGlvbnMudjJkaGFzaFggyIzTyfYAG+eadYNjAjVmSRGqK6A7LtNnv4pwfLNI40GiY3VybHgpc2VsZiNqdW1iZj1jMnBhLmFzc2VydGlvbnMvYzJwYS5oYXNoLmRhdGFkaGFzaFggfGspd16FPd8ZWySthHbBpBaNtByC9uPqVjpv/eupdbN0Y2xhaW1fZ2VuZXJhdG9yX2luZm+jZG5hbWVvQW50aHJvcGljIEZpbGVzZ3ZlcnNpb25lMS4wLjBrc3BlY1ZlcnNpb25lMi40LjAAABA4anVtYgAAAChqdW1kYzJjcwARABCAAACqADibcQNjMnBhLnNpZ25hdHVyZQAAABAIY2JvctKEWQISogEmGCFZAgowggIGMIIBjaADAgECAhRA5aAK7sI50L64g/oGQgU9Z1UTADAKBggqhkjOPQQDAzBJMRcwFQYDVQQKEw5BbnRocm9waWMsIFBCQzEuMCwGA1UEAxMlQW50aHJvcGljIENvbnRlbnQgQ3JlZGVudGlhbHMgUm9vdCBDQTAeFw0yNjA4MDcxODQzNTZaFw0yODA4MDYxOTQzNTZaMEQxFzAVBgNVBAoTDkFudGhyb3BpYywgUEJDMSkwJwYDVQQDEyBBbnRocm9waWMgQ2xhdWRlIENvbnRlbnQgU2lnbmluZzBZMBMGByqGSM49AgEGCCqGSM49AwEHA0IABJh6CmvLUBgFFNU0vUKlOVtE6djd17L5SuwX0LemFisBM3dkd/3cyjxFA3Qo5S46fX0/ihY0VZ7mfb9KF703t5OjWDBWMA4GA1UdDwEB/wQEAwIHgDAVBgNVHSUEDjAMBgorBgEEAYPoXgIBMAwGA1UdEwEB/wQCMAAwHwYDVR0jBBgwFoAUzlHiBIFOZFsj+OPEz5o+nMHXXMIwCgYIKoZIzj0EAwMDZwAwZAIwMXMdFJ4BetLLVY7ORuE9noqbbAZOZn/aArXyTwFAZfKrPzxF2vPoJNf1+UCdg1XGAjBwX1zd9WGqYkqmL5SFqw1QySjr1zJfpJM9+1rdDwSPLMOPOjKuiXjoU/pUUeG9RwmhY3BhZFkNngAAAAAAAAAAAAAAAAAAAAAAAAAAAAAAAAAAAAAAAAAAAAAAAAAAAAAAAAAAAAAAAAAAAAAAAAAAAAAAAAAAAAAAAAAAAAAAAAAAAAAAAAAAAAAAAAAAAAAAAAAAAAAAAAAAAAAAAAAAAAAAAAAAAAAAAAAAAAAAAAAAAAAAAAAAAAAAAAAAAAAAAAAAAAAAAAAAAAAAAAAAAAAAAAAAAAAAAAAAAAAAAAAAAAAAAAAAAAAAAAAAAAAAAAAAAAAAAAAAAAAAAAAAAAAAAAAAAAAAAAAAAAAAAAAAAAAAAAAAAAAAAAAAAAAAAAAAAAAAAAAAAAAAAAAAAAAAAAAAAAAAAAAAAAAAAAAAAAAAAAAAAAAAAAAAAAAAAAAAAAAAAAAAAAAAAAAAAAAAAAAAAAAAAAAAAAAAAAAAAAAAAAAAAAAAAAAAAAAAAAAAAAAAAAAAAAAAAAAAAAAAAAAAAAAAAAAAAAAAAAAAAAAAAAAAAAAAAAAAAAAAAAAAAAAAAAAAAAAAAAAAAAAAAAAAAAAAAAAAAAAAAAAAAAAAAAAAAAAAAAAAAAAAAAAAAAAAAAAAAAAAAAAAAAAAAAAAAAAAAAAAAAAAAAAAAAAAAAAAAAAAAAAAAAAAAAAAAAAAAAAAAAAAAAAAAAAAAAAAAAAAAAAAAAAAAAAAAAAAAAAAAAAAAAAAAAAAAAAAAAAAAAAAAAAAAAAAAAAAAAAAAAAAAAAAAAAAAAAAAAAAAAAAAAAAAAAAAAAAAAAAAAAAAAAAAAAAAAAAAAAAAAAAAAAAAAAAAAAAAAAAAAAAAAAAAAAAAAAAAAAAAAAAAAAAAAAAAAAAAAAAAAAAAAAAAAAAAAAAAAAAAAAAAAAAAAAAAAAAAAAAAAAAAAAAAAAAAAAAAAAAAAAAAAAAAAAAAAAAAAAAAAAAAAAAAAAAAAAAAAAAAAAAAAAAAAAAAAAAAAAAAAAAAAAAAAAAAAAAAAAAAAAAAAAAAAAAAAAAAAAAAAAAAAAAAAAAAAAAAAAAAAAAAAAAAAAAAAAAAAAAAAAAAAAAAAAAAAAAAAAAAAAAAAAAAAAAAAAAAAAAAAAAAAAAAAAAAAAAAAAAAAAAAAAAAAAAAAAAAAAAAAAAAAAAAAAAAAAAAAAAAAAAAAAAAAAAAAAAAAAAAAAAAAAAAAAAAAAAAAAAAAAAAAAAAAAAAAAAAAAAAAAAAAAAAAAAAAAAAAAAAAAAAAAAAAAAAAAAAAAAAAAAAAAAAAAAAAAAAAAAAAAAAAAAAAAAAAAAAAAAAAAAAAAAAAAAAAAAAAAAAAAAAAAAAAAAAAAAAAAAAAAAAAAAAAAAAAAAAAAAAAAAAAAAAAAAAAAAAAAAAAAAAAAAAAAAAAAAAAAAAAAAAAAAAAAAAAAAAAAAAAAAAAAAAAAAAAAAAAAAAAAAAAAAAAAAAAAAAAAAAAAAAAAAAAAAAAAAAAAAAAAAAAAAAAAAAAAAAAAAAAAAAAAAAAAAAAAAAAAAAAAAAAAAAAAAAAAAAAAAAAAAAAAAAAAAAAAAAAAAAAAAAAAAAAAAAAAAAAAAAAAAAAAAAAAAAAAAAAAAAAAAAAAAAAAAAAAAAAAAAAAAAAAAAAAAAAAAAAAAAAAAAAAAAAAAAAAAAAAAAAAAAAAAAAAAAAAAAAAAAAAAAAAAAAAAAAAAAAAAAAAAAAAAAAAAAAAAAAAAAAAAAAAAAAAAAAAAAAAAAAAAAAAAAAAAAAAAAAAAAAAAAAAAAAAAAAAAAAAAAAAAAAAAAAAAAAAAAAAAAAAAAAAAAAAAAAAAAAAAAAAAAAAAAAAAAAAAAAAAAAAAAAAAAAAAAAAAAAAAAAAAAAAAAAAAAAAAAAAAAAAAAAAAAAAAAAAAAAAAAAAAAAAAAAAAAAAAAAAAAAAAAAAAAAAAAAAAAAAAAAAAAAAAAAAAAAAAAAAAAAAAAAAAAAAAAAAAAAAAAAAAAAAAAAAAAAAAAAAAAAAAAAAAAAAAAAAAAAAAAAAAAAAAAAAAAAAAAAAAAAAAAAAAAAAAAAAAAAAAAAAAAAAAAAAAAAAAAAAAAAAAAAAAAAAAAAAAAAAAAAAAAAAAAAAAAAAAAAAAAAAAAAAAAAAAAAAAAAAAAAAAAAAAAAAAAAAAAAAAAAAAAAAAAAAAAAAAAAAAAAAAAAAAAAAAAAAAAAAAAAAAAAAAAAAAAAAAAAAAAAAAAAAAAAAAAAAAAAAAAAAAAAAAAAAAAAAAAAAAAAAAAAAAAAAAAAAAAAAAAAAAAAAAAAAAAAAAAAAAAAAAAAAAAAAAAAAAAAAAAAAAAAAAAAAAAAAAAAAAAAAAAAAAAAAAAAAAAAAAAAAAAAAAAAAAAAAAAAAAAAAAAAAAAAAAAAAAAAAAAAAAAAAAAAAAAAAAAAAAAAAAAAAAAAAAAAAAAAAAAAAAAAAAAAAAAAAAAAAAAAAAAAAAAAAAAAAAAAAAAAAAAAAAAAAAAAAAAAAAAAAAAAAAAAAAAAAAAAAAAAAAAAAAAAAAAAAAAAAAAAAAAAAAAAAAAAAAAAAAAAAAAAAAAAAAAAAAAAAAAAAAAAAAAAAAAAAAAAAAAAAAAAAAAAAAAAAAAAAAAAAAAAAAAAAAAAAAAAAAAAAAAAAAAAAAAAAAAAAAAAAAAAAAAAAAAAAAAAAAAAAAAAAAAAAAAAAAAAAAAAAAAAAAAAAAAAAAAAAAAAAAAAAAAAAAAAAAAAAAAAAAAAAAAAAAAAAAAAAAAAAAAAAAAAAAAAAAAAAAAAAAAAAAAAAAAAAAAAAAAAAAAAAAAAAAAAAAAAAAAAAAAAAAAAAAAAAAAAAAAAAAAAAAAAAAAAAAAAAAAAAAAAAAAAAAAAAAAAAAAAAAAAAAAAAAAAAAAAAAAAAAAAAAAAAAAAAAAAAAAAAAAAAAAAAAAAAAAAAAAAAAAAAAAAAAAAAAAAAAAAAAAAAAAAAAAAAAAAAAAAAAAAAAAAAAAAAAAAAAAAAAAAAAAAAAAAAAAAAAAAAAAAAAAAAAAAAAAAAAAAAAAAAAAAAAAAAAAAAAAAAAAAAAAAAAAAAAAAAAAAAAAAAAAAAAAAAAAAAAAAAAAAAAAAAAAAAAAAAAAAAAAAAAAAAAAAAAAAAAAAAAAAAAAAAAAAAAAAAAAAAAAAAAAAAAAAAAAAAAAAAAAAAAAAAAAAAAAAAAAAAAAAAAAAAAAAAAAAAAAAAAAAAAAAAAAAAAAAAAAAAAAAAAAAAAAAAAAAAAAAAAAAAAAAAAAAAAAAAAAAAAAAAAAAAAAAAAAAAAAAAAAAAAAAAAAAAAAAAAAAAAAAAAAAAAAAAAAAAAAAAAAAAAAAAAAAAAAAAAAAAAAAAAAAAAAAAAAAAAAAAAAAAAAAAAAAAAAAAAAAAAAAAAAAAAAAAAAAAAAAAAAAAAAAAAAAAAAAAAAAAAAAAAAAAAAAAAAAAAAAAAAAAAAAAAAAAAAAAAAAAAAAAAAAAAAAAAAAAAAAAAAAAAAAAAAAAAAAAAAAAAAAAAAAAAAAAAAAAAAAAAAAAAAAAAAAAAAAAAAAAAAAAAAAAAAAAAAAAAAAAAAAAAAAAAAAAAAAAAAAAAAAAAAAAAAAAAAAAAAAAAAAAAAAAAAAAAAAAAAAAAAAAAAAAAAAAAAAAAAAAAAAAAAAAAAAAAAAAAAAAAAAAAAAAAAAAAAAAAAAAAAAAAAAAAAAAAAAAAAAAAAAAAAAAAAAAAAAAAAAAAAAAAAAAAAAAAAAAAAAAAAAAAAAAAAAAAAAAAAAAAAAAAAAAAAAAAAAAAAAAAAAAAAAAAAAAAAAAAAAAAAAAAAAAAAAAAAAAAAAAAAAAAAAAAAAAAAAAAAAAAAAAAAAAAAAAAAAAAAAAAAAAAAAAAAAAAAAAAAAAAAAAAAAAAAAAAAAAAAAAAAAAAAAAAAAAAAAAAAAAAAAAAAAAAAAAAAAAAAAAAAAAAAAAAAAAAAAAAAAAAAAAAAAAAAAAAAAAAAAAAAAAAAAAAAAAAAAAAAAAAAAAAAAAAAAAAAAAAAAAAAAAAAAAAAAAAAAAAAAAAAAAAAAAAAAAAAAAAAAAAAAAAAAAAAAAAAAAAAAAAAAAAAAAAAAAAAAAAAAAAAAAAAAAAAAAAAAAAAAAAAAAAAAAAAAAAAAAAAAAAAAAAAAAAAAAAAAAAAAAAAAAAAAAAAAAAAAAAAAAAAAAAAAAAAAAAAAAAAAAAAAAAAAAAAAAAAAAAAAAAAAAAAAAAAAAAAAAAAAAAAAAAAAAAAAAAAAAAAAAAAAAAAAAAAAAAAAAAAAAAAAAAAAAAAAAAAAAAAAAAAAAAAAAAAAAAAAAAAAAAAAAAAAAAAAAAAAAAAAAAAAAAAAAAAAAAAAAAAAAAAAAAAAAAAAAAAAAAAAAAAAAAAAAAAAAAAAAAAAAAAAAAAAAAAAAAAAAAAAAAAAAAAAAAAAAAAAAAAAAAAAAAAAAAAAAAAAAAAAAAAAAAAAAAAAAAAAAAAAAAAAAAAAAAAAAAAAAAAAAAAAAAAAAAAAAAAAAAAAAAAAAAAAAAAAAAAAAAAAAAAAAAAAAAAAAAAAAAAAAAAAAAAAAAAAAAAAAAAAAAAAAAAAAAAAAAAAAAAAAAAAAAAAAAAAAAAAAAAAAAAAAAAAAAAAAAAAAAAAAAAPZYQN8kXpmXWEb76Erwon/dVbxIhtG3dzJRS4GpN/PLw9Yt7pwOVXO3n0nl7n07o8/S+SKdNBYHecB3qpF+bCTyj7o=</c2pa:manifest></metadata><title>JustMate</title><rect width="518" height="150" fill="#0A0A0D"/><path fill="#F5F5F7" d="M39.9921875 119.9890625Q26.75 119.9890625 19.103515625 112.811328125Q11.45703125 105.63359375 11.45703125 92.27421875V86.35625H28.44921875V92.39140625Q28.44921875 98.4265625 31.49609375 101.619921875Q34.54296875 104.81328125 39.81640625 104.81328125Q45.03125 104.81328125 48.078125 101.619921875Q51.125 98.4265625 51.125 92.39140625V31.395312500000003H69.171875V92.62578125Q69.171875 105.809375 61.37890625 112.89921875Q53.5859375 119.9890625 39.9921875 119.9890625Z M98.9534375 119.9890625Q92.3909375 119.9890625 87.498359375 117.147265625Q82.60578125 114.30546875 79.91046875 108.826953125Q77.21515625 103.3484375 77.21515625 95.55546875V56.825H94.5003125V92.39140625Q94.5003125 98.60234375 97.48859375 101.854296875Q100.476875 105.10625 105.8675 105.10625Q109.44171875 105.10625 112.166328125 103.64140625Q114.8909375 102.1765625 116.443671875 99.07109375Q117.99640625 95.965625 117.99640625 91.21953125V56.825H135.22296875V118.7H118.289375V102.58671875H121.2190625Q118.289375 110.78984375 112.869453125 115.389453125Q107.44953125 119.9890625 98.9534375 119.9890625Z M168.87171875 120.2234375Q160.844375 120.2234375 154.57484375 117.733203125Q148.3053125 115.24296875 144.5553125 110.55546875Q140.8053125 105.86796875 140.219375 99.246875H157.2115625Q157.6803125 103.28984375 160.61 105.575Q163.5396875 107.86015625 168.57875 107.86015625Q173.3834375 107.86015625 176.13734375 106.04375Q178.89125 104.22734375 178.89125 101.35625Q178.89125 98.8953125 176.781875 97.371875Q174.6725 95.8484375 170.86390625 95.1453125L160.0240625 93.0359375Q151.000625 91.278125 146.313125 86.7078125Q141.625625 82.1375 141.625625 74.9890625Q141.625625 69.1296875 144.818984375 64.73515625Q148.01234375 60.340625 153.901015625 57.93828125Q159.7896875 55.5359375 167.875625 55.5359375Q175.90296875 55.5359375 181.87953125 58.084765625Q187.85609375 60.63359375 191.225234375 65.291796875Q194.594375 69.95 194.77015625 76.45390625H178.7740625Q178.71546875 72.70390625 175.844375 70.24296875Q172.97328125 67.78203125 168.344375 67.78203125Q163.89125 67.78203125 161.37171875 69.686328125Q158.8521875 71.590625 158.8521875 74.34453125Q158.8521875 76.746875 160.844375 78.2703125Q162.8365625 79.79375 166.3521875 80.55546875L178.0709375 82.840625Q187.4459375 84.65703125 191.869765625 88.787890625Q196.29359375 92.91875 196.29359375 99.77421875Q196.29359375 105.9265625 192.807265625 110.526171875Q189.3209375 115.12578125 183.139296875 117.674609375Q176.95765625 120.2234375 168.87171875 120.2234375Z M237.96968750000002 56.825V70.36015625H197.36421875000002V56.825ZM208.02828125000002 39.95H225.25484375000002V99.5984375Q225.25484375000002 102.70390625 226.54390625000002 103.934375Q227.83296875000002 105.16484375 231.34859375000002 105.16484375Q232.81343750000002 105.16484375 234.83492187500002 105.16484375Q236.85640625000002 105.16484375 237.96968750000002 105.16484375V118.7Q236.38765625000002 118.7 233.57515625000002 118.7Q230.76265625000002 118.7 227.89156250000002 118.7Q217.69625000000002 118.7 212.86226562500002 114.715625Q208.02828125000002 110.73125 208.02828125000002 102.29375Z M242.73171875000003 118.7V31.395312500000003H269.0403125L283.454375 72.059375Q284.33328125 74.81328125 285.56375 78.826953125Q286.79421875 82.840625 288.08328125 87.205859375Q289.37234375 91.57109375 290.456328125 95.55546875Q291.5403125 99.53984375 292.2434375 102.1765625H287.73171875Q288.43484375 99.53984375 289.518828125 95.55546875Q290.6028125 91.57109375 291.891875 87.205859375Q293.1809375 82.840625 294.382109375 78.826953125Q295.58328125 74.81328125 296.40359375 72.059375L310.641875 31.395312500000003H336.95046875V118.7H319.31375V77.215625Q319.31375 74.2859375 319.401640625 70.24296875Q319.48953125 66.2 319.60671875 61.600390625Q319.72390625 57.00078125 319.84109375 52.283984375Q319.95828125 47.5671875 320.016875 43.3484375H322.18484375Q320.8371875 47.97734375 319.401640625 52.840625Q317.96609375 57.70390625 316.6184375 62.27421875Q315.27078125 66.84453125 314.069609375 70.682421875Q312.8684375 74.5203125 311.98953125 77.215625L297.22390625 118.7H282.57546875L267.6340625 77.215625Q266.75515625 74.5203125 265.5246875 70.682421875Q264.29421875 66.84453125 262.917265625 62.27421875Q261.5403125 57.70390625 260.046171875 52.840625Q258.55203125 47.97734375 257.14578125 43.3484375H259.72390625Q259.7825 47.5671875 259.8996875 52.283984375Q260.016875 57.00078125 260.1340625 61.600390625Q260.25125 66.2 260.339140625 70.24296875Q260.42703125 74.2859375 260.42703125 77.215625V118.7Z M364.21250000000003 119.7546875Q358.06015625000003 119.7546875 353.25546875000003 117.70390625Q348.45078125000003 115.653125 345.69687500000003 111.522265625Q342.94296875000003 107.39140625 342.94296875000003 101.2390625Q342.94296875000003 96.02421875 344.87656250000003 92.537890625Q346.81015625000003 89.0515625 350.17929687500003 86.912890625Q353.54843750000003 84.77421875 357.91367187500003 83.6609375Q362.27890625000003 82.54765625 367.08359375000003 82.1375Q372.76718750000003 81.5515625 376.10703125000003 81.02421875Q379.44687500000003 80.496875 380.91171875000003 79.50078125Q382.37656250000003 78.5046875 382.37656250000003 76.5125V76.10234375Q382.37656250000003 73.8171875 381.14609375000003 72.088671875Q379.91562500000003 70.36015625 377.65976562500003 69.3640625Q375.40390625000003 68.36796875 372.23984375000003 68.36796875Q369.07578125000003 68.36796875 366.64414062500003 69.3640625Q364.21250000000003 70.36015625 362.80625000000003 72.1765625Q361.40000000000003 73.99296875 361.16562500000003 76.3953125H344.93515625000003Q345.34531250000003 70.00859375 348.71445312500003 65.32109375Q352.08359375000003 60.63359375 358.17734375000003 58.084765625Q364.27109375000003 55.5359375 372.76718750000003 55.5359375Q379.09531250000003 55.5359375 384.07578125000003 56.971484375Q389.05625000000003 58.40703125 392.48398437500003 61.1609375Q395.91171875000003 63.91484375 397.66953125000003 67.840625Q399.42734375000003 71.76640625 399.42734375000003 76.746875V118.7H382.55234375000003V109.96953125H382.31796875000003Q380.67734375000003 113.01640625 378.27500000000003 115.184375Q375.87265625000003 117.35234375 372.41562500000003 118.553515625Q368.95859375000003 119.7546875 364.21250000000003 119.7546875ZM369.01718750000003 107.74296875Q373.17734375000003 107.74296875 376.19492187500003 106.21953125Q379.21250000000003 104.69609375 380.85312500000003 102.059375Q382.49375000000003 99.42265625 382.49375000000003 96.0828125V89.871875Q381.73203125000003 90.28203125 380.50156250000003 90.662890625Q379.27109375000003 91.04375 377.63046875000003 91.366015625Q375.98984375000003 91.68828125 374.05625000000003 92.03984375Q372.12265625000003 92.39140625 370.07187500000003 92.684375Q367.08359375000003 93.153125 364.68125000000003 94.119921875Q362.27890625000003 95.08671875 360.87265625000003 96.698046875Q359.46640625000003 98.309375 359.46640625000003 100.7703125Q359.46640625000003 102.93828125 360.63828125000003 104.5203125Q361.81015625000003 106.10234375 363.97812500000003 106.92265625Q366.14609375000003 107.74296875 369.01718750000003 107.74296875Z M442.86125000000004 56.825V70.36015625H402.25578125000004V56.825ZM412.91984375000004 39.95H430.14640625000004V99.5984375Q430.14640625000004 102.70390625 431.43546875000004 103.934375Q432.72453125000004 105.16484375 436.24015625000004 105.16484375Q437.70500000000004 105.16484375 439.72648437500004 105.16484375Q441.74796875000004 105.16484375 442.86125000000004 105.16484375V118.7Q441.27921875000004 118.7 438.46671875000004 118.7Q435.65421875000004 118.7 432.78312500000004 118.7Q422.58781250000004 118.7 417.75382812500004 114.715625Q412.91984375000004 110.73125 412.91984375000004 102.29375Z M474.57640625000005 120.10625Q465.20140625000005 120.10625 458.25804687500005 115.975390625Q451.31468750000005 111.84453125 447.47679687500005 104.5203125Q443.63890625000005 97.19609375 443.63890625000005 87.82109375Q443.63890625000005 78.32890625 447.53539062500005 71.033984375Q451.43187500000005 63.7390625 458.28734375000005 59.57890625Q465.14281250000005 55.41875 473.99046875000005 55.41875Q480.84593750000005 55.41875 486.41234375000005 57.733203125Q491.97875000000005 60.04765625 496.02171875000005 64.354296875Q500.06468750000005 68.6609375 502.26195312500005 74.5203125Q504.45921875000005 80.3796875 504.45921875000005 87.46953125V92.0984375H449.79125000000005V81.0828125H496.13890625000005L488.34593750000005 83.71953125Q488.34593750000005 79.03203125 486.64671875000005 75.63359375Q484.94750000000005 72.23515625 481.81273437500005 70.389453125Q478.67796875000005 68.54375 474.34203125000005 68.54375Q470.06468750000005 68.54375 466.95921875000005 70.389453125Q463.85375000000005 72.23515625 462.15453125000005 75.63359375Q460.45531250000005 79.03203125 460.45531250000005 83.71953125V91.21953125Q460.45531250000005 96.02421875 462.18382812500005 99.627734375Q463.91234375000005 103.23125 467.19359375000005 105.194140625Q470.47484375000005 107.15703125 475.10375000000005 107.15703125Q478.50218750000005 107.15703125 481.10960937500005 106.190234375Q483.71703125000005 105.2234375 485.50414062500005 103.436328125Q487.29125000000005 101.64921875 488.05296875000005 99.246875H503.81468750000005Q502.70140625000005 105.39921875 498.59984375000005 110.08671875Q494.49828125000005 114.77421875 488.28734375000005 117.440234375Q482.07640625000005 120.10625 474.57640625000005 120.10625Z"/></svg>
